<svg viewBox="0 0 300 300" xmlns="http://www.w3.org/2000/svg">
<rect width="300" height="300" rx="60" fill="#1a2538"/>
<polygon points="0,230 90,90 130,130 180,70 240,150 300,230" fill="#2a4060"/>
<polygon points="0,230 70,130 120,170 160,110 210,160 300,230" fill="#1e3350"/>
<polygon points="0,260 50,170 100,210 140,150 190,190 250,160 300,260" fill="#162840"/>
<polygon points="180,70 160,98 170,90 180,100 190,88 200,98" fill="#e0e8f0"/>
<polygon points="90,90 75,110 85,104 95,112 105,102" fill="#d0dae6"/>
<path d="M60,250 Q90,190 130,170 Q170,150 200,180 Q230,210 250,190" fill="none" stroke="#e07830" stroke-width="3" stroke-linecap="round"/>
<path d="M64,254 Q94,194 134,174 Q174,154 204,184 Q234,214 254,194" fill="none" stroke="#d06060" stroke-width="2" stroke-linecap="round" opacity="0.6"/>
<text x="150" y="58" text-anchor="middle" font-family="system-ui, -apple-system, sans-serif" font-size="42" font-weight="500" fill="#e8a050" letter-spacing="8">AT</text>
<line x1="80" y1="270" x2="220" y2="270" stroke="#3a5068" stroke-width="1"/>
<line x1="90" y1="282" x2="210" y2="282" stroke="#3a5068" stroke-width="1"/>
<line x1="100" y1="294" x2="200" y2="294" stroke="#3a5068" stroke-width="1"/>
<circle cx="95" cy="220" r="3" fill="#28a858" opacity="0.8"/>
<circle cx="130" cy="198" r="4" fill="#e07830" opacity="0.9"/>
<circle cx="170" cy="182" r="5" fill="#d06060"/>
<circle cx="210" cy="192" r="4" fill="#e07830" opacity="0.9"/>
<circle cx="240" cy="198" r="3" fill="#28a858" opacity="0.8"/>
</svg>